<svg width="269" height="71" viewBox="0 0 269 71" fill="none" xmlns="http://www.w3.org/2000/svg">
<path d="M74.8889 44.2785C74.6789 44.2786 74.4829 44.2437 74.3009 44.1738C74.1328 44.1039 73.9858 43.999 73.8597 43.8591C73.7476 43.7191 73.6565 43.5512 73.5864 43.3552C73.5303 43.1452 73.5021 42.9073 73.502 42.6413L73.4952 30.6503C73.495 30.1603 73.6208 29.7822 73.8726 29.516C74.1385 29.2359 74.5164 29.0957 75.0064 29.0954C75.5104 29.0951 75.8885 29.2349 76.1406 29.5148C76.3928 29.7806 76.519 30.1586 76.5192 30.6486L76.5242 39.4266L75.9992 39.4268L83.3229 30.0357C83.5747 29.6996 83.8196 29.4615 84.0575 29.3213C84.2954 29.1672 84.6104 29.09 85.0024 29.0898C85.2684 29.0896 85.4994 29.1525 85.6955 29.2784C85.8916 29.4043 86.0456 29.5792 86.1578 29.8031C86.2699 30.0271 86.326 30.286 86.3262 30.58L86.333 42.697C86.3333 43.201 86.2005 43.5931 85.9347 43.8733C85.6828 44.1394 85.3119 44.2726 84.8219 44.2729C84.3319 44.2732 83.9538 44.1404 83.6877 43.8745C83.4355 43.5947 83.3093 43.2027 83.309 42.6987L83.3041 33.9207L83.8081 33.9205L76.5054 43.3116C76.2396 43.6477 75.9947 43.8929 75.7708 44.047C75.5609 44.2011 75.2669 44.2783 74.8889 44.2785ZM90.9524 44.2694C90.4204 44.2697 90.0143 44.123 89.7342 43.8291C89.454 43.5353 89.3138 43.1224 89.3135 42.5904L89.3068 30.7674C89.3065 30.2354 89.4463 29.8223 89.7261 29.5281C90.006 29.234 90.4119 29.0867 90.9439 29.0864C91.4619 29.0862 91.861 29.2329 92.1411 29.5268C92.4213 29.8206 92.5615 30.2335 92.5618 30.7655L92.5643 35.2175L99.4523 35.2137L99.4498 30.7617C99.4495 30.2297 99.5893 29.8166 99.8691 29.5224C100.149 29.2283 100.548 29.081 101.066 29.0808C101.598 29.0805 102.004 29.2272 102.284 29.5211C102.564 29.8149 102.705 30.2278 102.705 30.7598L102.711 42.5828C102.712 43.1148 102.572 43.5279 102.292 43.8221C102.012 44.1162 101.606 44.2635 101.074 44.2638C100.556 44.264 100.157 44.1173 99.8772 43.8234C99.597 43.5296 99.4568 43.1167 99.4565 42.5847L99.4539 37.9227L92.5659 37.9265L92.5685 42.5885C92.5688 43.1205 92.429 43.5336 92.1492 43.8278C91.8833 44.1219 91.4844 44.2691 90.9524 44.2694ZM110.866 44.2583C110.334 44.2586 109.928 44.1118 109.648 43.8179C109.368 43.5241 109.228 43.1112 109.227 42.5792L109.221 31.9532L105.504 31.9553C105.07 31.9555 104.734 31.8367 104.496 31.5988C104.258 31.361 104.139 31.032 104.138 30.612C104.138 30.178 104.257 29.849 104.495 29.6248C104.733 29.3867 105.069 29.2675 105.503 29.2673L116.192 29.2613C116.626 29.261 116.962 29.3798 117.2 29.6177C117.438 29.8416 117.557 30.1705 117.557 30.6045C117.558 31.0245 117.439 31.3536 117.201 31.5917C116.963 31.8298 116.627 31.949 116.193 31.9493L112.476 31.9513L112.482 42.5773C112.483 43.1093 112.343 43.5224 112.063 43.8166C111.797 44.1107 111.398 44.258 110.866 44.2583ZM120.67 44.0637C120.124 44.064 119.704 43.9173 119.409 43.6234C119.115 43.3296 118.968 42.9097 118.968 42.3637L118.961 30.9607C118.961 30.4147 119.108 29.9946 119.402 29.7005C119.695 29.4063 120.115 29.2591 120.661 29.2587L127.99 29.2546C128.41 29.2544 128.725 29.3662 128.935 29.5901C129.16 29.8 129.272 30.1079 129.272 30.5139C129.272 30.9339 129.16 31.256 128.937 31.4801C128.727 31.6902 128.412 31.7954 127.992 31.7956L122.07 31.799L122.072 35.264L127.511 35.2609C127.945 35.2607 128.267 35.3725 128.477 35.5964C128.701 35.8062 128.813 36.1212 128.813 36.5412C128.814 36.9612 128.702 37.2832 128.478 37.5074C128.268 37.7175 127.946 37.8227 127.512 37.8229L122.073 37.826L122.075 41.522L127.997 41.5186C128.417 41.5184 128.732 41.6302 128.942 41.8541C129.166 42.064 129.279 42.3719 129.279 42.7779C129.279 43.1979 129.167 43.52 128.943 43.7441C128.734 43.9542 128.419 44.0594 127.999 44.0596L120.67 44.0637ZM143.003 44.2402C142.471 44.2405 142.064 44.0937 141.784 43.7999C141.504 43.506 141.364 43.0931 141.364 42.5611L141.358 31.9351L136.78 31.9377L136.781 34.6257C136.782 35.8017 136.698 36.8657 136.531 37.8178C136.363 38.7699 136.119 39.6311 135.797 40.4012C135.476 41.1574 135.077 41.8296 134.602 42.4179C134.14 43.0062 133.608 43.5105 133.006 43.9308C132.643 44.197 132.265 44.2952 131.873 44.2254C131.495 44.1697 131.165 43.9598 130.885 43.596C130.605 43.2182 130.507 42.8472 130.591 42.4832C130.688 42.1051 130.919 41.776 131.283 41.4958C131.717 41.1735 132.088 40.7883 132.395 40.3402C132.717 39.878 132.976 39.3388 133.171 38.7227C133.381 38.1066 133.535 37.3925 133.632 36.5805C133.73 35.7544 133.778 34.8234 133.778 33.7874L133.776 30.9524C133.776 30.4064 133.923 29.9863 134.216 29.6921C134.51 29.398 134.937 29.2507 135.497 29.2504L142.91 29.2462C143.47 29.2459 143.897 29.3927 144.191 29.6865C144.486 29.9804 144.633 30.4003 144.633 30.9463L144.64 42.5593C144.64 43.0913 144.5 43.5043 144.22 43.7985C143.94 44.0927 143.535 44.2399 143.003 44.2402ZM158.917 44.2312C158.385 44.2315 157.979 44.0848 157.698 43.7909C157.418 43.4971 157.278 43.0842 157.278 42.5522L157.272 31.9262L152.694 31.9287L152.695 34.6167C152.696 35.7927 152.612 36.8568 152.445 37.8089C152.278 38.761 152.033 39.6221 151.711 40.3923C151.39 41.1485 150.991 41.8207 150.516 42.409C150.054 42.9972 149.522 43.5015 148.92 43.9219C148.557 44.1881 148.179 44.2863 147.787 44.2165C147.409 44.1607 147.079 43.9509 146.799 43.5871C146.519 43.2092 146.421 42.8383 146.505 42.4742C146.602 42.0962 146.833 41.767 147.197 41.4868C147.631 41.1646 148.002 40.7794 148.309 40.3312C148.631 39.869 148.89 39.3299 149.086 38.7138C149.295 38.0977 149.449 37.3836 149.546 36.5715C149.644 35.7455 149.692 34.8144 149.692 33.7784L149.69 30.9434C149.69 30.3974 149.837 29.9773 150.13 29.6832C150.424 29.389 150.851 29.2418 151.411 29.2415L158.824 29.2373C159.384 29.237 159.811 29.3837 160.105 29.6776C160.4 29.9714 160.547 30.3913 160.547 30.9373L160.554 42.5503C160.554 43.0823 160.414 43.4954 160.134 43.7896C159.855 44.0837 159.449 44.2309 158.917 44.2312ZM165.213 44.0387C164.667 44.039 164.246 43.8922 163.952 43.5984C163.658 43.3046 163.511 42.8847 163.511 42.3387L163.504 30.9357C163.504 30.3897 163.651 29.9696 163.945 29.6754C164.238 29.3812 164.658 29.234 165.204 29.2337L172.533 29.2296C172.953 29.2294 173.268 29.3412 173.478 29.5651C173.703 29.7749 173.815 30.0829 173.815 30.4889C173.815 30.9089 173.703 31.2309 173.48 31.4551C173.27 31.6652 172.955 31.7704 172.535 31.7706L166.613 31.7739L166.615 35.2389L172.054 35.2359C172.488 35.2356 172.81 35.3474 173.02 35.5713C173.244 35.7812 173.356 36.0961 173.356 36.5161C173.357 36.9361 173.245 37.2582 173.021 37.4823C172.811 37.6924 172.489 37.7976 172.055 37.7979L166.616 37.8009L166.618 41.4969L172.54 41.4936C172.96 41.4933 173.275 41.6052 173.485 41.8291C173.709 42.0389 173.822 42.3469 173.822 42.7529C173.822 43.1729 173.71 43.4949 173.486 43.7191C173.277 43.9292 172.962 44.0343 172.542 44.0346L165.213 44.0387ZM177.865 44.2206C177.333 44.2209 176.926 44.0741 176.646 43.7803C176.366 43.4864 176.226 43.0735 176.226 42.5415L176.219 30.6975C176.219 30.1655 176.358 29.7594 176.638 29.4793C176.918 29.1851 177.324 29.0379 177.856 29.0376C178.374 29.0373 178.773 29.1841 179.053 29.4779C179.333 29.7578 179.474 30.1637 179.474 30.6957L179.477 35.3367L181.577 35.3355L181.031 35.6928L184.618 29.8738C184.842 29.5237 185.108 29.2855 185.416 29.1593C185.738 29.0332 186.046 29.005 186.34 29.0748C186.648 29.1447 186.907 29.2915 187.117 29.5154C187.341 29.7393 187.468 30.0122 187.496 30.3342C187.538 30.6562 187.44 31.0062 187.202 31.3843L183.992 36.3421L182.69 35.4399C183.642 35.6073 184.433 35.9499 185.063 36.4675C185.707 36.9852 186.268 37.7269 186.744 38.6926L188.3 41.8837C188.524 42.3176 188.595 42.7026 188.511 43.0386C188.441 43.3746 188.273 43.6407 188.007 43.8369C187.741 44.033 187.44 44.1452 187.104 44.1734C186.783 44.2156 186.46 44.1598 186.138 44.0059C185.83 43.8381 185.592 43.5583 185.424 43.1663L183.868 39.8282C183.56 39.1704 183.188 38.7086 182.754 38.4428C182.334 38.1631 181.795 38.0234 181.137 38.0238L179.478 38.0247L179.481 42.5397C179.481 43.0717 179.341 43.4848 179.061 43.7789C178.795 44.0731 178.397 44.2203 177.865 44.2206ZM195.994 44.2104C195.462 44.2107 195.056 44.0639 194.776 43.7701C194.496 43.4762 194.355 43.0633 194.355 42.5313L194.349 31.9053L190.632 31.9074C190.198 31.9077 189.862 31.7888 189.624 31.551C189.386 31.3131 189.267 30.9842 189.266 30.5642C189.266 30.1302 189.385 29.8011 189.623 29.577C189.861 29.3388 190.197 29.2197 190.631 29.2194L201.32 29.2134C201.754 29.2132 202.09 29.332 202.328 29.5698C202.566 29.7937 202.685 30.1226 202.685 30.5566C202.686 30.9766 202.567 31.3057 202.329 31.5438C202.091 31.782 201.755 31.9012 201.321 31.9014L197.604 31.9035L197.61 42.5295C197.61 43.0615 197.471 43.4746 197.191 43.7687C196.925 44.0629 196.526 44.2101 195.994 44.2104Z" fill="#172870"/>
<path d="M33.8181 3.01407C15.2767 3.01407 0.24588 18.0448 0.24588 36.5863C0.24588 45.7777 3.94085 54.1049 9.92488 60.1676L38.6434 69.812C54.8983 67.4718 67.3903 53.489 67.3903 36.5864C67.3903 18.0448 52.3595 3.01407 33.8181 3.01407Z" fill="#EFEFEF"/>
<path d="M58.0107 22.3781C58.0107 34.4032 45.0308 43.5467 32.0036 43.5467C18.9765 43.5467 8.41586 33.7984 8.41586 21.7733C8.41586 9.74825 18.9765 0 32.0036 0C44.7047 0.604815 54.3818 9.07222 58.0107 22.3781Z" fill="#1D2E79"/>
<path d="M58.0107 21.1685L44.2052 10.5843L30.3998 0C24.3202 0 18.7226 2.06036 14.2646 5.51923V6.77564L11.6413 7.84871C6.95026 12.6056 4.05389 19.1371 4.05389 26.3459C4.07938 26.4592 3.91303 29.4479 5.04255 33.4722L6.58344 34.4211L5.81265 35.8017C6.70073 38.1254 8.03923 40.6475 10.0548 43.0881L13.7888 44.1159L12.2271 45.4176C13.0624 46.2128 13.7374 46.9491 14.3476 48.8891C15.2649 51.8056 14.5422 54.9915 12.5069 57.273L9.9246 60.1676C14.5929 64.8973 20.6554 68.2456 27.4448 69.5509L27.4459 69.5516L28.7476 68.4726L29.9809 69.9388C31.2548 70.0845 32.5359 70.1579 33.8181 70.1585C35.4327 70.1582 37.0453 70.0424 38.6434 69.8118C38.6492 67.2853 38.6527 64.3514 38.6541 64.3114C38.7016 62.853 39.3388 62.5412 40.8807 59.6857C41.0674 59.3677 41.41 59.1538 41.7855 59.1242L57.4059 24.1926L58.0107 21.1685Z" fill="#1D2E79"/>
<path d="M57.9112 31.1552C57.4927 30.6493 57.2017 30.0504 57.0629 29.4087C56.924 28.767 56.9413 28.1014 57.1133 27.4677C57.2473 26.826 57.7149 25.7127 57.7743 24.0899L39.6873 21.1409L28.8164 22.5112L28.4255 36.6236C27.6962 37.6458 25.6948 41.029 28.6109 44.0177V49.3014L28.6235 49.3357C28.6476 49.4013 29.2352 50.9654 31.151 52.9884C34.2319 56.2422 38.3769 58.1602 41.4179 59.216C41.6699 59.107 41.963 59.0843 42.2474 59.1834C44.6957 59.9261 46.3921 60.9839 49.2409 60.8581C50.6289 60.7969 51.9143 60.1234 52.7329 59.0008C54.5868 56.4586 54.0898 54.0388 54.1717 53.2565C54.1717 51.0646 55.8992 50.1413 56.4908 49.423C57.397 48.5469 56.8351 47.4526 56.8221 47.2374C56.7993 47.147 56.8027 47.0519 56.8319 46.9634C56.8611 46.8749 56.9149 46.7965 56.987 46.7374L58.6231 45.3958C58.6946 45.3372 58.7522 45.2634 58.7918 45.1798C58.8314 45.0962 58.8519 45.0049 58.8519 44.9124V42.5633C58.8519 42.3951 58.9583 42.2458 59.1172 42.1908C60.1144 41.845 63.5823 40.5408 63.5823 39.1264C63.5823 38.2109 60.5842 34.3847 57.9112 31.1552Z" fill="#2A428B"/>
<path d="M44.1636 33.709C43.4069 33.709 42.7933 34.3226 42.7933 35.0793V42.8826H28.8164C28.0596 42.8826 27.4461 43.4962 27.4461 44.2529V52.0395C27.4461 52.7962 28.0596 53.4098 28.8164 53.4098C29.5731 53.4098 30.1867 52.7962 30.1867 52.0395V45.6232H44.1636C44.9202 45.6232 45.5338 45.0096 45.5338 44.2529V35.0793C45.5338 34.3226 44.9204 33.709 44.1636 33.709Z" fill="#02C0FC"/>
<path d="M13.908 13.1018C13.908 13.8585 14.5216 14.4721 15.2783 14.4721C16.035 14.4721 16.6486 13.8585 16.6486 13.1018V8.05426H27.4461V14.5634C27.4461 15.32 28.0596 15.9337 28.8164 15.9337C29.5731 15.9337 30.1867 15.32 30.1867 14.5634V6.68397C30.1867 5.9273 29.5731 5.31369 28.8164 5.31369H14.5327C13.4323 6.14531 12.3984 7.06162 11.4407 8.05426H13.908V13.1018Z" fill="#95DB76"/>
<path d="M42.2855 21.2588L40.5781 20.5637H29.1079C28.3689 20.5637 27.7699 21.1177 27.7699 21.8008V33.8422C27.7699 34.5253 28.3689 35.0792 29.1079 35.0792C29.8467 35.0792 30.4459 34.5253 30.4459 33.8422V23.0377H41.558C41.9269 22.4414 42.2855 21.2588 42.2855 21.2588Z" fill="#FFDD01"/>
<path d="M20.0826 42.8826H9.88553C10.6735 43.8551 11.529 44.7709 12.4458 45.6232H18.7123V60.0111C18.7123 60.7678 19.3258 61.3814 20.0826 61.3814H27.4461V69.5516C28.3536 69.7263 29.2679 69.8634 30.1867 69.9626V60.0111C30.1867 59.2545 29.5731 58.6409 28.8164 58.6409H21.4529V44.2529C21.4529 43.4962 20.8393 42.8826 20.0826 42.8826Z" fill="#9957BC"/>
<path d="M16.6486 34.637V21.7412C16.6486 20.9845 16.035 20.3709 15.2783 20.3709C14.5216 20.3709 13.908 20.9845 13.908 21.7412V33.2668H4.98553C5.23832 34.1959 5.54091 35.1107 5.89198 36.0073H15.2784C16.0351 36.0073 16.6486 35.3937 16.6486 34.637Z" fill="#1D8DF2"/>
<path d="M28.8164 37.4118C30.3489 37.4118 31.5912 36.1694 31.5912 34.6369C31.5912 33.1045 30.3489 31.8621 28.8164 31.8621C27.2839 31.8621 26.0416 33.1045 26.0416 34.6369C26.0416 36.1694 27.2839 37.4118 28.8164 37.4118Z" fill="#FFFBB3"/>
<path d="M15.2784 24.516C16.8109 24.516 18.0532 23.2737 18.0532 21.7412C18.0532 20.2087 16.8109 18.9663 15.2784 18.9663C13.7459 18.9663 12.5036 20.2087 12.5036 21.7412C12.5036 23.2737 13.7459 24.516 15.2784 24.516Z" fill="#27A6FF"/>
<path d="M28.8164 17.3383C30.3489 17.3383 31.5912 16.096 31.5912 14.5635C31.5912 13.031 30.3489 11.7887 28.8164 11.7887C27.2839 11.7887 26.0416 13.031 26.0416 14.5635C26.0416 16.096 27.2839 17.3383 28.8164 17.3383Z" fill="#BAEE63"/>
<path d="M20.195 62.896C21.7275 62.896 22.9698 61.6537 22.9698 60.1212C22.9698 58.5887 21.7275 57.3464 20.195 57.3464C18.6625 57.3464 17.4202 58.5887 17.4202 60.1212C17.4202 61.6537 18.6625 62.896 20.195 62.896Z" fill="#BB81E3"/>
<path d="M28.8164 54.8144C30.3489 54.8144 31.5912 53.572 31.5912 52.0395C31.5912 50.507 30.3489 49.2647 28.8164 49.2647C27.2839 49.2647 26.0416 50.507 26.0416 52.0395C26.0416 53.572 27.2839 54.8144 28.8164 54.8144Z" fill="#64F9EA"/>
<path d="M44.1636 37.4118C45.696 37.4118 46.9384 36.1694 46.9384 34.6369C46.9384 33.1045 45.696 31.8621 44.1636 31.8621C42.6311 31.8621 41.3887 33.1045 41.3887 34.6369C41.3887 36.1694 42.6311 37.4118 44.1636 37.4118Z" fill="#64F9EA"/>
<path d="M264 39.5C264 54.6878 251.688 67 236.5 67C221.312 67 209 54.6878 209 39.5C209 24.3122 221.312 12 236.5 12C251.688 12 264 24.3122 264 39.5Z" fill="#FFDD01"/>
<path d="M242.627 49.9493C241.578 49.8762 240.367 49.6842 239.413 49.3956C239.234 49.3415 238.494 49.0575 238.305 48.9673C234.982 47.3604 232.667 43.8527 232.667 39.7832C232.667 34.2015 237.017 29.655 242.368 29.655C247.671 29.655 251.992 34.1239 252.066 39.6425H255.571C255.497 32.1077 249.604 26.0012 242.368 26.0012C235.088 26.0012 229.163 32.1825 229.163 39.7832C229.163 45.0231 231.986 49.5805 236.12 51.9087C236.866 52.3208 237.937 52.7455 238.301 52.8618C239.479 53.2279 240.925 53.4714 242.213 53.5733C242.65 53.6076 244.176 53.6256 244.621 53.6274H268.755V49.9835H244.662C244.341 49.9835 242.941 49.9709 242.627 49.9493ZM244.662 44.2278C244.407 44.2278 243.074 44.2188 242.828 44.1971C242.41 44.1602 241.806 44.0952 241.417 44.0024C240.978 43.8797 240.566 43.7174 240.38 43.611C239.079 42.8761 238.191 41.4388 238.191 39.7832C238.191 37.3747 240.06 35.4215 242.368 35.4215C244.628 35.4215 246.465 37.298 246.539 39.6425H249.906C249.835 35.3593 246.49 31.9075 242.368 31.9075C238.2 31.9075 234.821 35.4332 234.821 39.7832C234.821 42.8509 236.506 45.5001 238.959 46.7977C239.337 47.0286 240.047 47.2702 240.249 47.3252C240.942 47.5155 241.872 47.6453 242.627 47.7031C242.906 47.7274 244.273 47.7382 244.561 47.74V47.7454H268.754V44.2278H244.662ZM227.004 53.6139H223.476V29.6631H218.32V25.9795H227.004V53.6139ZM214.447 31.5035V35.0455H218.32V53.6139H221.71V31.5035H214.447Z" fill="#D91920"/>
<path d="M73.4538 58.1143V57.1669H73.9766C74.178 57.1669 74.3468 57.1274 74.483 57.0485C74.6218 56.9695 74.7362 56.8674 74.826 56.7422C74.9186 56.617 74.9948 56.4863 75.0547 56.3501L75.1854 56.0398L72.294 49.6364H73.3885L75.6918 54.831L77.799 49.6364H78.8771L75.9858 56.6442C75.8714 56.9055 75.7408 57.1478 75.5938 57.3711C75.4495 57.5943 75.2521 57.774 75.0016 57.9102C74.7538 58.0463 74.4176 58.1143 73.9929 58.1143H73.4538ZM83.0283 56.6932L85.2172 51.7273H86.132L83.4204 58H82.6363L79.9736 51.7273H80.8721L83.0283 56.6932ZM80.5617 51.7273V58H79.5979V51.7273H80.5617ZM85.4949 58V51.7273H86.4587V58H85.4949ZM92.4211 54.4226V55.321H88.958V54.4226H92.4211ZM89.1867 51.7273V58H88.2229V51.7273H89.1867ZM93.1562 51.7273V58H92.1924V51.7273H93.1562ZM95.7494 53.9979H97.5463C98.2813 53.9979 98.8435 54.1844 99.2329 54.5574C99.6222 54.9303 99.8169 55.4027 99.8169 55.9744C99.8169 56.3501 99.7297 56.6918 99.5555 56.9995C99.3812 57.3044 99.1253 57.5481 98.7877 57.7305C98.4501 57.9102 98.0363 58 97.5463 58H94.9163V51.7273H95.8801V57.1016H97.5463C97.9274 57.1016 98.2405 57.0008 98.4855 56.7994C98.7306 56.5979 98.8531 56.3393 98.8531 56.0234C98.8531 55.6913 98.7306 55.4204 98.4855 55.2108C98.2405 55.0011 97.9274 54.8963 97.5463 54.8963H95.7494V53.9979ZM100.813 58V51.7273H101.777V58H100.813ZM106.171 58.1307C105.567 58.1307 105.045 57.9973 104.607 57.7305C104.172 57.4609 103.835 57.0852 103.598 56.6033C103.364 56.1187 103.247 55.5552 103.247 54.9126C103.247 54.2701 103.364 53.7038 103.598 53.2138C103.835 52.721 104.165 52.3371 104.587 52.0621C105.011 51.7844 105.507 51.6456 106.073 51.6456C106.4 51.6456 106.723 51.7 107.041 51.8089C107.36 51.9179 107.65 52.0948 107.911 52.3398C108.172 52.5821 108.381 52.9034 108.536 53.3036C108.691 53.7038 108.769 54.1966 108.769 54.782V55.1903H103.933V54.3572H107.788C107.788 54.0033 107.718 53.6875 107.576 53.4098C107.437 53.1321 107.238 52.9129 106.98 52.7523C106.724 52.5917 106.422 52.5114 106.073 52.5114C105.689 52.5114 105.357 52.6067 105.077 52.7972C104.799 52.9851 104.585 53.2301 104.436 53.5323C104.286 53.8345 104.211 54.1585 104.211 54.5043V55.0597C104.211 55.5334 104.293 55.935 104.456 56.2644C104.622 56.5911 104.852 56.8402 105.146 57.0117C105.44 57.1805 105.782 57.2649 106.171 57.2649C106.424 57.2649 106.653 57.2295 106.857 57.1587C107.064 57.0852 107.243 56.9763 107.392 56.832C107.542 56.685 107.658 56.5026 107.739 56.2848L108.671 56.5462C108.573 56.862 108.408 57.1397 108.176 57.3793C107.945 57.6161 107.659 57.8013 107.319 57.9347C106.978 58.0653 106.596 58.1307 106.171 58.1307ZM113.469 60.3523V51.7273H114.4V52.7237H114.514C114.585 52.6148 114.683 52.476 114.809 52.3072C114.936 52.1357 115.119 51.9832 115.356 51.8498C115.595 51.7137 115.919 51.6456 116.328 51.6456C116.856 51.6456 117.321 51.7776 117.724 52.0417C118.127 52.3058 118.442 52.6802 118.668 53.1648C118.894 53.6494 119.007 54.2211 119.007 54.88C119.007 55.5443 118.894 56.1201 118.668 56.6074C118.442 57.092 118.129 57.4677 117.728 57.7346C117.328 57.9986 116.867 58.1307 116.344 58.1307C115.941 58.1307 115.618 58.064 115.376 57.9306C115.134 57.7944 114.947 57.6406 114.817 57.4691C114.686 57.2949 114.585 57.1506 114.514 57.0362H114.433V60.3523H113.469ZM114.416 54.8636C114.416 55.3374 114.486 55.7553 114.625 56.1174C114.764 56.4767 114.966 56.7585 115.233 56.9627C115.5 57.1642 115.827 57.2649 116.213 57.2649C116.616 57.2649 116.953 57.1587 117.222 56.9464C117.494 56.7313 117.698 56.4427 117.835 56.0806C117.973 55.7158 118.043 55.3101 118.043 54.8636C118.043 54.4226 117.975 54.0251 117.839 53.6712C117.705 53.3145 117.502 53.0327 117.23 52.8258C116.961 52.6162 116.622 52.5114 116.213 52.5114C115.821 52.5114 115.492 52.6107 115.225 52.8095C114.958 53.0055 114.757 53.2805 114.621 53.6344C114.485 53.9856 114.416 54.3954 114.416 54.8636ZM123.107 58.1307C122.502 58.1307 121.981 57.9973 121.543 57.7305C121.107 57.4609 120.771 57.0852 120.534 56.6033C120.3 56.1187 120.183 55.5552 120.183 54.9126C120.183 54.2701 120.3 53.7038 120.534 53.2138C120.771 52.721 121.1 52.3371 121.522 52.0621C121.947 51.7844 122.443 51.6456 123.009 51.6456C123.335 51.6456 123.658 51.7 123.977 51.8089C124.295 51.9179 124.585 52.0948 124.847 52.3398C125.108 52.5821 125.316 52.9034 125.471 53.3036C125.627 53.7038 125.704 54.1966 125.704 54.782V55.1903H120.869V54.3572H124.724C124.724 54.0033 124.653 53.6875 124.512 53.4098C124.373 53.1321 124.174 52.9129 123.915 52.7523C123.659 52.5917 123.357 52.5114 123.009 52.5114C122.625 52.5114 122.293 52.6067 122.012 52.7972C121.735 52.9851 121.521 53.2301 121.371 53.5323C121.221 53.8345 121.147 54.1585 121.147 54.5043V55.0597C121.147 55.5334 121.228 55.935 121.392 56.2644C121.558 56.5911 121.788 56.8402 122.082 57.0117C122.376 57.1805 122.717 57.2649 123.107 57.2649C123.36 57.2649 123.589 57.2295 123.793 57.1587C124 57.0852 124.178 56.9763 124.328 56.832C124.478 56.685 124.593 56.5026 124.675 56.2848L125.606 56.5462C125.508 56.862 125.343 57.1397 125.112 57.3793C124.881 57.6161 124.595 57.8013 124.254 57.9347C123.914 58.0653 123.532 58.1307 123.107 58.1307ZM127.17 51.7273H128.134V57.1016H130.503V51.7273H131.466V57.1016H133.835V51.7273H134.799V58H127.17V51.7273ZM139.189 58.1307C138.584 58.1307 138.063 57.9973 137.625 57.7305C137.189 57.4609 136.853 57.0852 136.616 56.6033C136.382 56.1187 136.265 55.5552 136.265 54.9126C136.265 54.2701 136.382 53.7038 136.616 53.2138C136.853 52.721 137.182 52.3371 137.604 52.0621C138.029 51.7844 138.525 51.6456 139.091 51.6456C139.418 51.6456 139.74 51.7 140.059 51.8089C140.377 51.9179 140.667 52.0948 140.929 52.3398C141.19 52.5821 141.398 52.9034 141.553 53.3036C141.709 53.7038 141.786 54.1966 141.786 54.782V55.1903H136.951V54.3572H140.806C140.806 54.0033 140.735 53.6875 140.594 53.4098C140.455 53.1321 140.256 52.9129 139.997 52.7523C139.742 52.5917 139.439 52.5114 139.091 52.5114C138.707 52.5114 138.375 52.6067 138.094 52.7972C137.817 52.9851 137.603 53.2301 137.453 53.5323C137.303 53.8345 137.229 54.1585 137.229 54.5043V55.0597C137.229 55.5334 137.31 55.935 137.474 56.2644C137.64 56.5911 137.87 56.8402 138.164 57.0117C138.458 57.1805 138.8 57.2649 139.189 57.2649C139.442 57.2649 139.671 57.2295 139.875 57.1587C140.082 57.0852 140.26 56.9763 140.41 56.832C140.56 56.685 140.675 56.5026 140.757 56.2848L141.688 56.5462C141.59 56.862 141.425 57.1397 141.194 57.3793C140.963 57.6161 140.677 57.8013 140.336 57.9347C139.996 58.0653 139.614 58.1307 139.189 58.1307ZM147.45 54.4226V55.321H143.987V54.4226H147.45ZM144.216 51.7273V58H143.252V51.7273H144.216ZM148.185 51.7273V58H147.222V51.7273H148.185ZM150.909 56.5788L153.931 51.7273H155.042V58H154.078V53.1484L151.073 58H149.946V51.7273H150.909V56.5788ZM160.581 58V52.6094H158.915C158.539 52.6094 158.244 52.6965 158.028 52.8707C157.813 53.045 157.706 53.2846 157.706 53.5895C157.706 53.889 157.802 54.1245 157.996 54.296C158.192 54.4675 158.46 54.5533 158.8 54.5533H160.826V55.4517H158.8C158.376 55.4517 158.009 55.3768 157.702 55.2271C157.394 55.0774 157.157 54.8636 156.991 54.5859C156.825 54.3055 156.742 53.9734 156.742 53.5895C156.742 53.2029 156.829 52.8707 157.003 52.593C157.178 52.3153 157.427 52.1016 157.751 51.9519C158.077 51.8021 158.465 51.7273 158.915 51.7273H161.496V58H160.581ZM156.399 58L158.18 54.88H159.225L157.444 58H156.399ZM165.83 59.7969V57.1016H166.352C166.48 56.9682 166.59 56.8239 166.683 56.6687C166.776 56.5135 166.856 56.3297 166.924 56.1174C166.995 55.9023 167.055 55.6409 167.104 55.3333C167.153 55.0229 167.196 54.6486 167.234 54.2102L167.447 51.7273H171.433V57.1016H172.396V59.7969H171.433V58H166.793V59.7969H165.83ZM167.447 57.1016H170.469V52.6257H168.345L168.182 54.2102C168.114 54.8664 168.029 55.4395 167.929 55.9295C167.828 56.4196 167.667 56.8103 167.447 57.1016ZM173.12 58V57.1016H173.349C173.537 57.1016 173.693 57.0648 173.818 56.9913C173.944 56.9151 174.044 56.783 174.121 56.5952C174.2 56.4046 174.26 56.1405 174.3 55.8029C174.344 55.4626 174.375 55.0297 174.394 54.5043L174.509 51.7273H178.69V58H177.727V52.6257H175.423L175.325 54.8636C175.304 55.3782 175.257 55.8315 175.187 56.2235C175.119 56.6129 175.014 56.9396 174.872 57.2037C174.733 57.4677 174.548 57.6665 174.317 57.7999C174.085 57.9333 173.795 58 173.447 58H173.12ZM184.232 58V52.6094H182.566C182.19 52.6094 181.895 52.6965 181.68 52.8707C181.465 53.045 181.357 53.2846 181.357 53.5895C181.357 53.889 181.454 54.1245 181.647 54.296C181.843 54.4675 182.111 54.5533 182.452 54.5533H184.477V55.4517H182.452C182.027 55.4517 181.661 55.3768 181.353 55.2271C181.045 55.0774 180.809 54.8636 180.643 54.5859C180.476 54.3055 180.393 53.9734 180.393 53.5895C180.393 53.2029 180.481 52.8707 180.655 52.593C180.829 52.3153 181.078 52.1016 181.402 51.9519C181.729 51.8021 182.117 51.7273 182.566 51.7273H185.147V58H184.232ZM180.05 58L181.831 54.88H182.876L181.096 58H180.05ZM193.075 49.6364V58H192.062V50.6982H192.013L189.971 52.054V51.0249L192.062 49.6364H193.075ZM202.357 52.25H201.344C201.284 51.9587 201.18 51.7028 201.03 51.4822C200.883 51.2617 200.703 51.0766 200.491 50.9268C200.281 50.7744 200.048 50.66 199.793 50.5838C199.537 50.5076 199.27 50.4695 198.992 50.4695C198.486 50.4695 198.027 50.5974 197.616 50.8533C197.207 51.1093 196.882 51.4863 196.64 51.9846C196.4 52.4828 196.28 53.094 196.28 53.8182C196.28 54.5424 196.4 55.1536 196.64 55.6518C196.882 56.15 197.207 56.5271 197.616 56.783C198.027 57.0389 198.486 57.1669 198.992 57.1669C199.27 57.1669 199.537 57.1288 199.793 57.0526C200.048 56.9763 200.281 56.8633 200.491 56.7136C200.703 56.5611 200.883 56.3746 201.03 56.1541C201.18 55.9309 201.284 55.675 201.344 55.3864H202.357C202.281 55.8138 202.142 56.1963 201.941 56.5339C201.739 56.8715 201.489 57.1587 201.189 57.3956C200.89 57.6297 200.553 57.8081 200.18 57.9306C199.81 58.0531 199.414 58.1143 198.992 58.1143C198.279 58.1143 197.644 57.9401 197.089 57.5916C196.534 57.2431 196.097 56.7476 195.778 56.1051C195.46 55.4626 195.3 54.7003 195.3 53.8182C195.3 52.9361 195.46 52.1738 195.778 51.5312C196.097 50.8887 196.534 50.3932 197.089 50.0447C197.644 49.6963 198.279 49.522 198.992 49.522C199.414 49.522 199.81 49.5833 200.18 49.7058C200.553 49.8283 200.89 50.008 201.189 50.2449C201.489 50.479 201.739 50.7649 201.941 51.1025C202.142 51.4373 202.281 51.8198 202.357 52.25Z" fill="black" fill-opacity="0.65"/>
<path d="M27.7699 21.483H242.5" stroke="#FFDD01" stroke-width="3"/>
</svg>
