<svg width="236" height="62" viewBox="0 0 236 62" fill="none" xmlns="http://www.w3.org/2000/svg">
<path d="M67.5428 38.456C67.3628 38.4561 67.1948 38.4262 67.0388 38.3663C66.8948 38.3064 66.7687 38.2164 66.6606 38.0965C66.5646 37.9765 66.4865 37.8326 66.4264 37.6646C66.3783 37.4846 66.3542 37.2807 66.354 37.0527L66.3483 26.7747C66.348 26.3547 66.4559 26.0306 66.6717 25.8025C66.8996 25.5623 67.2235 25.4422 67.6435 25.4419C68.0755 25.4417 68.3996 25.5615 68.6157 25.8014C68.8319 26.0293 68.94 26.3532 68.9403 26.7732L68.9445 34.2972L68.4945 34.2975L74.772 26.2479C74.9878 25.9598 75.1977 25.7557 75.4016 25.6356C75.6056 25.5035 75.8755 25.4373 76.2115 25.4371C76.4395 25.437 76.6375 25.4909 76.8056 25.5988C76.9737 25.7067 77.1058 25.8566 77.2019 26.0486C77.298 26.2405 77.3461 26.4625 77.3462 26.7145L77.3521 37.1005C77.3523 37.5325 77.2385 37.8685 77.0106 38.1087C76.7948 38.3368 76.4768 38.451 76.0568 38.4512C75.6368 38.4514 75.3128 38.3376 75.0846 38.1098C74.8685 37.8699 74.7603 37.5339 74.7601 37.1019L74.7558 29.5779L75.1878 29.5777L68.9284 37.6272C68.7005 37.9153 68.4907 38.1255 68.2987 38.2576C68.1188 38.3897 67.8668 38.4558 67.5428 38.456ZM81.3116 38.4483C80.8556 38.4485 80.5075 38.3227 80.2674 38.0708C80.0272 37.819 79.907 37.465 79.9068 37.009L79.9011 26.875C79.9008 26.419 80.0206 26.065 80.2605 25.8128C80.5003 25.5607 80.8483 25.4345 81.3043 25.4343C81.7483 25.434 82.0903 25.5598 82.3305 25.8117C82.5706 26.0635 82.6908 26.4175 82.6911 26.8735L82.6932 30.6895L88.5972 30.6862L88.5951 26.8702C88.5948 26.4142 88.7146 26.0601 88.9545 25.808C89.1943 25.5558 89.5363 25.4296 89.9803 25.4294C90.4363 25.4291 90.7843 25.5549 91.0245 25.8068C91.2646 26.0587 91.3848 26.4126 91.3851 26.8686L91.3908 37.0026C91.391 37.4586 91.2712 37.8127 91.0314 38.0648C90.7915 38.3169 90.4436 38.4431 89.9876 38.4434C89.5436 38.4436 89.2015 38.3178 88.9614 38.066C88.7212 37.8141 88.601 37.4602 88.6008 37.0042L88.5985 33.0082L82.6945 33.0115L82.6968 37.0075C82.697 37.4635 82.5772 37.8175 82.3374 38.0697C82.1095 38.3218 81.7676 38.448 81.3116 38.4483ZM98.3805 38.4387C97.9245 38.4389 97.5764 38.3131 97.3363 38.0612C97.0961 37.8094 96.9759 37.4554 96.9757 36.9994L96.9706 27.8914L93.7846 27.8932C93.4126 27.8934 93.1245 27.7916 92.9204 27.5877C92.7163 27.3838 92.6141 27.1019 92.6139 26.7419C92.6137 26.3699 92.7155 26.0878 92.9194 25.8957C93.1233 25.6916 93.4113 25.5894 93.7833 25.5892L102.945 25.5841C103.317 25.5839 103.605 25.6857 103.809 25.8896C104.014 26.0815 104.116 26.3634 104.116 26.7354C104.116 27.0954 104.014 27.3775 103.81 27.5816C103.606 27.7857 103.319 27.8879 102.947 27.8881L99.7606 27.8899L99.7657 36.9979C99.7659 37.4539 99.6461 37.8079 99.4063 38.0601C99.1784 38.3122 98.8365 38.4384 98.3805 38.4387ZM106.783 38.2719C106.315 38.2722 105.955 38.1464 105.703 37.8945C105.451 37.6427 105.325 37.2828 105.325 36.8148L105.319 27.0408C105.319 26.5728 105.445 26.2127 105.697 25.9605C105.948 25.7084 106.308 25.5822 106.776 25.5819L113.058 25.5784C113.418 25.5782 113.688 25.6741 113.868 25.8659C114.061 26.0458 114.157 26.3098 114.157 26.6578C114.157 27.0178 114.061 27.2938 113.869 27.4859C113.689 27.666 113.42 27.7562 113.06 27.7564L107.984 27.7593L107.985 30.7293L112.647 30.7266C113.019 30.7264 113.295 30.8223 113.475 31.0142C113.667 31.1941 113.764 31.464 113.764 31.824C113.764 32.184 113.668 32.4601 113.476 32.6522C113.296 32.8323 113.02 32.9224 112.648 32.9226L107.986 32.9253L107.988 36.0933L113.064 36.0904C113.424 36.0902 113.694 36.186 113.874 36.3779C114.066 36.5578 114.163 36.8218 114.163 37.1698C114.163 37.5298 114.067 37.8058 113.875 37.9979C113.695 38.178 113.425 38.2682 113.065 38.2684L106.783 38.2719ZM125.926 38.4232C125.47 38.4234 125.122 38.2976 124.882 38.0458C124.642 37.7939 124.521 37.44 124.521 36.984L124.516 27.876L120.592 27.8782L120.593 30.1822C120.594 31.1902 120.522 32.1022 120.379 32.9183C120.235 33.7344 120.026 34.4725 119.75 35.1326C119.474 35.7808 119.133 36.357 118.725 36.8612C118.329 37.3654 117.874 37.7977 117.358 38.158C117.046 38.3862 116.722 38.4703 116.386 38.4105C116.062 38.3627 115.78 38.1829 115.54 37.871C115.299 37.5471 115.215 37.2292 115.287 36.9172C115.371 36.5931 115.569 36.311 115.881 36.0708C116.252 35.7946 116.57 35.4644 116.834 35.0803C117.11 34.6841 117.332 34.222 117.499 33.6939C117.679 33.1658 117.811 32.5537 117.894 31.8577C117.978 31.1496 118.019 30.3516 118.019 29.4636L118.018 27.0336C118.017 26.5656 118.143 26.2055 118.395 25.9534C118.647 25.7013 119.013 25.5751 119.493 25.5748L125.847 25.5712C126.327 25.5709 126.693 25.6967 126.945 25.9486C127.197 26.2005 127.323 26.5604 127.324 27.0284L127.329 36.9824C127.329 37.4384 127.21 37.7925 126.97 38.0446C126.73 38.2967 126.382 38.4229 125.926 38.4232ZM139.567 38.4155C139.111 38.4158 138.763 38.29 138.522 38.0381C138.282 37.7862 138.162 37.4323 138.162 36.9763L138.157 27.8683L134.233 27.8705L134.234 30.1745C134.235 31.1825 134.163 32.0945 134.019 32.9106C133.876 33.7267 133.666 34.4648 133.391 35.125C133.115 35.7731 132.773 36.3493 132.366 36.8536C131.97 37.3578 131.514 37.79 130.998 38.1503C130.687 38.3785 130.363 38.4627 130.027 38.4029C129.703 38.3551 129.42 38.1752 129.18 37.8633C128.94 37.5395 128.856 37.2215 128.928 36.9095C129.012 36.5854 129.209 36.3033 129.521 36.0632C129.893 35.7869 130.211 35.4568 130.475 35.0726C130.75 34.6765 130.972 34.2143 131.14 33.6862C131.32 33.1581 131.451 32.5461 131.535 31.85C131.618 31.142 131.66 30.3439 131.66 29.456L131.658 27.026C131.658 26.558 131.784 26.1979 132.036 25.9457C132.287 25.6936 132.653 25.5674 133.133 25.5671L139.487 25.5635C139.967 25.5633 140.333 25.6891 140.586 25.9409C140.838 26.1928 140.964 26.5527 140.964 27.0207L140.97 36.9747C140.97 37.4307 140.85 37.7848 140.61 38.0369C140.371 38.2891 140.023 38.4153 139.567 38.4155ZM144.963 38.2505C144.495 38.2507 144.135 38.1249 143.883 37.8731C143.631 37.6212 143.505 37.2613 143.504 36.7933L143.499 27.0193C143.499 26.5513 143.624 26.1912 143.876 25.9391C144.128 25.6869 144.488 25.5607 144.956 25.5605L151.238 25.5569C151.598 25.5567 151.868 25.6526 152.048 25.8445C152.24 26.0244 152.336 26.2883 152.337 26.6363C152.337 26.9963 152.241 27.2724 152.049 27.4645C151.869 27.6446 151.599 27.7347 151.239 27.7349L146.163 27.7378L146.165 30.7078L150.827 30.7052C151.199 30.705 151.475 30.8008 151.655 30.9927C151.847 31.1726 151.943 31.4425 151.943 31.8025C151.944 32.1625 151.848 32.4386 151.656 32.6307C151.476 32.8108 151.2 32.901 150.828 32.9012L146.166 32.9038L146.168 36.0718L151.244 36.0689C151.604 36.0687 151.874 36.1646 152.054 36.3565C152.246 36.5364 152.342 36.8003 152.343 37.1483C152.343 37.5083 152.247 37.7844 152.055 37.9765C151.875 38.1566 151.605 38.2467 151.245 38.2469L144.963 38.2505ZM155.808 38.4064C155.352 38.4066 155.004 38.2808 154.763 38.029C154.523 37.7771 154.403 37.4232 154.403 36.9672L154.397 26.8152C154.397 26.3592 154.517 26.0111 154.757 25.771C154.996 25.5188 155.344 25.3926 155.8 25.3924C156.244 25.3921 156.586 25.5179 156.827 25.7698C157.067 26.0097 157.187 26.3576 157.187 26.8136L157.189 30.7916L158.989 30.7906L158.522 31.0969L161.597 26.1091C161.789 25.809 162.016 25.6049 162.28 25.4967C162.556 25.3886 162.82 25.3644 163.072 25.4243C163.336 25.4841 163.558 25.61 163.739 25.8019C163.931 25.9938 164.039 26.2278 164.063 26.5037C164.099 26.7797 164.015 27.0798 163.811 27.4039L161.06 31.6534L159.943 30.8801C160.759 31.0236 161.438 31.3172 161.978 31.7609C162.53 32.2046 163.011 32.8403 163.419 33.6681L164.753 36.4034C164.945 36.7752 165.005 37.1052 164.933 37.3932C164.873 37.6813 164.729 37.9094 164.501 38.0775C164.274 38.2456 164.016 38.3418 163.728 38.3659C163.452 38.4021 163.176 38.3542 162.9 38.2224C162.635 38.0785 162.431 37.8387 162.287 37.5027L160.954 34.6415C160.689 34.0776 160.371 33.6818 159.999 33.454C159.639 33.2142 159.177 33.0945 158.613 33.0948L157.191 33.0956L157.193 36.9656C157.193 37.4216 157.073 37.7757 156.833 38.0278C156.606 38.2799 156.264 38.4061 155.808 38.4064ZM171.347 38.3976C170.891 38.3979 170.543 38.2721 170.303 38.0202C170.063 37.7684 169.943 37.4144 169.942 36.9584L169.937 27.8504L166.751 27.8522C166.379 27.8524 166.091 27.7506 165.887 27.5467C165.683 27.3428 165.581 27.0609 165.581 26.7009C165.58 26.3289 165.682 26.0468 165.886 25.8547C166.09 25.6506 166.378 25.5484 166.75 25.5482L175.912 25.5431C176.284 25.5429 176.572 25.6447 176.776 25.8486C176.98 26.0405 177.082 26.3224 177.083 26.6944C177.083 27.0544 176.981 27.3365 176.777 27.5406C176.573 27.7447 176.285 27.8469 175.913 27.8471L172.727 27.8489L172.732 36.9569C172.733 37.4129 172.613 37.7669 172.373 38.0191C172.145 38.2712 171.803 38.3974 171.347 38.3976Z" fill="white"/>
<path d="M29.5075 2.64914C13.211 2.64914 0 15.8601 0 32.1567C0 40.2353 3.24761 47.5543 8.50713 52.8829L33.7486 61.3596C48.0354 59.3028 59.0151 47.0129 59.0151 32.1568C59.0151 15.8601 45.8041 2.64914 29.5075 2.64914Z" fill="#EFEFEF"/>
<path d="M50.771 19.6688C50.771 30.2379 39.3627 38.2743 27.9127 38.2743C16.4628 38.2743 7.18082 29.7063 7.18082 19.1372C7.18082 8.568 16.4628 0 27.9127 0C39.0761 0.531588 47.5815 7.97382 50.771 19.6688Z" fill="#1D2E79"/>
<path d="M50.771 18.6056L38.6371 9.30279L26.5031 0C21.1596 0 16.2397 1.8109 12.3214 4.851V5.95529L10.0157 6.89844C5.89266 11.0794 3.34697 16.8201 3.34697 23.1561C3.36937 23.2557 3.22316 25.8826 4.21593 29.4196L5.57025 30.2536L4.89279 31.4671C5.67334 33.5094 6.84978 35.7262 8.6213 37.8713L11.9032 38.7746L10.5306 39.9188C11.2648 40.6177 11.8581 41.2648 12.3944 42.97C13.2006 45.5334 12.5654 48.3335 10.7765 50.3388L8.50689 52.883C12.61 57.04 17.9385 59.9829 23.9058 61.1302L23.9068 61.1308L25.051 60.1825L26.1349 61.4711C27.2546 61.5992 28.3806 61.6636 29.5075 61.6642C30.9267 61.664 32.344 61.5621 33.7486 61.3595C33.7537 59.1389 33.7568 56.5602 33.758 56.525C33.7998 55.2432 34.3598 54.9692 35.715 52.4594C35.8792 52.1798 36.1803 51.9918 36.5103 51.9658L50.2395 21.2635L50.771 18.6056Z" fill="#1D2E79"/>
<path d="M50.6836 27.3831C50.3158 26.9385 50.06 26.4121 49.938 25.8481C49.816 25.2841 49.8312 24.699 49.9823 24.1421C50.1001 23.5781 50.511 22.5996 50.5633 21.1732L34.6661 18.5813L25.1114 19.7856L24.7678 32.1894C24.1268 33.0879 22.3677 36.0615 24.9308 38.6884V43.3323L24.9418 43.3624C24.963 43.4201 25.4795 44.7948 27.1633 46.573C29.8712 49.4328 33.5144 51.1185 36.1873 52.0465C36.4087 51.9508 36.6664 51.9308 36.9163 52.0178C39.0681 52.6706 40.5591 53.6004 43.0631 53.4898C44.283 53.436 45.4128 52.844 46.1323 51.8574C47.7617 49.6229 47.3249 47.4961 47.3969 46.8085C47.3969 44.882 48.9152 44.0705 49.4352 43.4392C50.2316 42.6692 49.7378 41.7074 49.7264 41.5182C49.7063 41.4387 49.7093 41.3552 49.735 41.2774C49.7606 41.1996 49.8079 41.1307 49.8713 41.0787L51.3093 39.8996C51.3722 39.8481 51.4228 39.7832 51.4576 39.7098C51.4924 39.6363 51.5104 39.556 51.5104 39.4747V37.41C51.5104 37.2621 51.6039 37.131 51.7436 37.0826C52.62 36.7787 55.6681 35.6324 55.6681 34.3892C55.6681 33.5846 53.033 30.2216 50.6836 27.3831Z" fill="#2A428B"/>
<path d="M38.6004 29.6277C37.9354 29.6277 37.3961 30.1671 37.3961 30.8321V37.6907H25.1114C24.4462 37.6907 23.907 38.23 23.907 38.8951V45.739C23.907 46.404 24.4462 46.9433 25.1114 46.9433C25.7765 46.9433 26.3158 46.404 26.3158 45.739V40.0995H38.6004C39.2655 40.0995 39.8048 39.5601 39.8048 38.8951V30.8321C39.8048 30.1671 39.2656 29.6277 38.6004 29.6277Z" fill="#02C0FC"/>
<path d="M12.008 11.5156C12.008 12.1806 12.5473 12.7199 13.2124 12.7199C13.8774 12.7199 14.4168 12.1806 14.4168 11.5156V7.07911H23.907V12.8001C23.907 13.4652 24.4462 14.0045 25.1114 14.0045C25.7765 14.0045 26.3158 13.4652 26.3158 12.8001V5.87473C26.3158 5.20967 25.7765 4.67035 25.1114 4.67035H12.5571C11.5899 5.40129 10.6812 6.20665 9.83941 7.07911H12.008V11.5156Z" fill="#95DB76"/>
<path d="M36.9497 18.6849L35.4491 18.074H25.3676C24.7181 18.074 24.1916 18.5609 24.1916 19.1613V29.7448C24.1916 30.3452 24.7181 30.8321 25.3676 30.8321C26.017 30.8321 26.5436 30.3452 26.5436 29.7448V20.2485H36.3104C36.6346 19.7244 36.9497 18.6849 36.9497 18.6849Z" fill="#FFDD01"/>
<path d="M17.435 37.6907H8.47254C9.16509 38.5455 9.91704 39.3504 10.7228 40.0994H16.2307V52.7454C16.2307 53.4105 16.7699 53.9498 17.435 53.9498H23.907V61.1308C24.7046 61.2843 25.5082 61.4048 26.3158 61.492V52.7454C26.3158 52.0804 25.7765 51.541 25.1114 51.541H18.6394V38.8951C18.6394 38.23 18.1001 37.6907 17.435 37.6907Z" fill="#9957BC"/>
<path d="M14.4168 30.4434V19.1089C14.4168 18.4438 13.8774 17.9045 13.2124 17.9045C12.5473 17.9045 12.008 18.4438 12.008 19.1089V29.239H4.16581C4.388 30.0557 4.65395 30.8597 4.96251 31.6478H13.2125C13.8776 31.6478 14.4168 31.1085 14.4168 30.4434Z" fill="#1D8DF2"/>
<path d="M25.1114 32.8822C26.4583 32.8822 27.5503 31.7903 27.5503 30.4434C27.5503 29.0964 26.4583 28.0045 25.1114 28.0045C23.7644 28.0045 22.6725 29.0964 22.6725 30.4434C22.6725 31.7903 23.7644 32.8822 25.1114 32.8822Z" fill="#FFFBB3"/>
<path d="M13.2125 21.5477C14.5595 21.5477 15.6514 20.4558 15.6514 19.1089C15.6514 17.7619 14.5595 16.67 13.2125 16.67C11.8656 16.67 10.7736 17.7619 10.7736 19.1089C10.7736 20.4558 11.8656 21.5477 13.2125 21.5477Z" fill="#27A6FF"/>
<path d="M25.1114 15.2391C26.4583 15.2391 27.5503 14.1472 27.5503 12.8003C27.5503 11.4533 26.4583 10.3614 25.1114 10.3614C23.7644 10.3614 22.6725 11.4533 22.6725 12.8003C22.6725 14.1472 23.7644 15.2391 25.1114 15.2391Z" fill="#BAEE63"/>
<path d="M17.5338 55.281C18.8808 55.281 19.9727 54.1891 19.9727 52.8421C19.9727 51.4952 18.8808 50.4033 17.5338 50.4033C16.1869 50.4033 15.0949 51.4952 15.0949 52.8421C15.0949 54.1891 16.1869 55.281 17.5338 55.281Z" fill="#BB81E3"/>
<path d="M25.1114 48.1778C26.4583 48.1778 27.5503 47.0859 27.5503 45.7389C27.5503 44.392 26.4583 43.3001 25.1114 43.3001C23.7644 43.3001 22.6725 44.392 22.6725 45.7389C22.6725 47.0859 23.7644 48.1778 25.1114 48.1778Z" fill="#64F9EA"/>
<path d="M38.6004 32.8822C39.9474 32.8822 41.0393 31.7903 41.0393 30.4434C41.0393 29.0964 39.9474 28.0045 38.6004 28.0045C37.2535 28.0045 36.1616 29.0964 36.1616 30.4434C36.1616 31.7903 37.2535 32.8822 38.6004 32.8822Z" fill="#64F9EA"/>
<path d="M231.821 34.7176C231.821 48.0666 220.999 58.8881 207.65 58.8881C194.301 58.8881 183.48 48.0666 183.48 34.7176C183.48 21.3686 194.301 10.5471 207.65 10.5471C220.999 10.5471 231.821 21.3686 231.821 34.7176Z" fill="#FFDD01"/>
<path d="M213.035 43.9018C212.113 43.8376 211.049 43.6687 210.21 43.4151C210.053 43.3676 209.402 43.1179 209.237 43.0387C206.316 41.6263 204.281 38.5433 204.281 34.9665C204.281 30.0606 208.105 26.0646 212.808 26.0646C217.469 26.0646 221.267 29.9924 221.332 34.8429H224.412C224.347 28.2203 219.168 22.8531 212.808 22.8531C206.409 22.8531 201.202 28.2861 201.202 34.9665C201.202 39.572 203.683 43.5776 207.316 45.624C207.972 45.9862 208.913 46.3595 209.233 46.4617C210.269 46.7835 211.54 46.9975 212.671 47.087C213.055 47.1171 214.397 47.133 214.788 47.1346H236V43.9319H214.824C214.542 43.9319 213.311 43.9208 213.035 43.9018ZM214.824 38.873C214.6 38.873 213.428 38.8651 213.212 38.8461C212.845 38.8136 212.313 38.7565 211.972 38.6749C211.586 38.5671 211.224 38.4244 211.061 38.3309C209.916 37.685 209.137 36.4216 209.137 34.9665C209.137 32.8496 210.779 31.1329 212.808 31.1329C214.794 31.1329 216.409 32.7822 216.473 34.8429H219.433C219.371 31.0782 216.431 28.0444 212.808 28.0444C209.144 28.0444 206.175 31.1432 206.175 34.9665C206.175 37.6628 207.655 39.9913 209.812 41.1318C210.143 41.3347 210.768 41.5471 210.945 41.5954C211.554 41.7627 212.372 41.8768 213.035 41.9275C213.281 41.9489 214.482 41.9584 214.735 41.96V41.9648H235.999V38.873H214.824ZM199.304 47.1227H196.203V26.0717H191.671V22.8341H199.304V47.1227ZM188.267 27.6893V30.8024H191.671V47.1227H194.651V27.6893H188.267Z" fill="#D91920"/>
<path d="M66.3308 51.409V50.5851H66.7854C66.9606 50.5851 67.1073 50.5508 67.2257 50.4822C67.3465 50.4135 67.4459 50.3247 67.524 50.2158C67.6045 50.1069 67.6708 49.9933 67.7229 49.8749L67.8365 49.605L65.3223 44.0368H66.274L68.2769 48.5539L70.1092 44.0368H71.0467L68.5325 50.1306C68.4331 50.3579 68.3195 50.5686 68.1916 50.7627C68.0662 50.9568 67.8945 51.1131 67.6767 51.2314C67.4613 51.3498 67.1689 51.409 66.7996 51.409H66.3308ZM74.6565 50.1732L76.5599 45.855H77.3553L74.9974 51.3096H74.3156L72.0002 45.855H72.7815L74.6565 50.1732ZM72.5116 45.855V51.3096H71.6735V45.855H72.5116ZM76.8014 51.3096V45.855H77.6394V51.3096H76.8014ZM82.8241 48.1988V48.98H79.8127V48.1988H82.8241ZM80.0116 45.855V51.3096H79.1735V45.855H80.0116ZM83.4633 45.855V51.3096H82.6252V45.855H83.4633ZM85.7183 47.8295H87.2808C87.92 47.8295 88.4088 47.9916 88.7474 48.316C89.0859 48.6403 89.2552 49.051 89.2552 49.5482C89.2552 49.8749 89.1794 50.172 89.0279 50.4395C88.8764 50.7047 88.6539 50.9166 88.3603 51.0752C88.0667 51.2314 87.7069 51.3096 87.2808 51.3096H84.9938V45.855H85.8319V50.5283H87.2808C87.6122 50.5283 87.8845 50.4407 88.0975 50.2655C88.3106 50.0903 88.4171 49.8654 88.4171 49.5908C88.4171 49.302 88.3106 49.0664 88.0975 48.8841C87.8845 48.7019 87.6122 48.6107 87.2808 48.6107H85.7183V47.8295ZM90.1217 51.3096V45.855H90.9597V51.3096H90.1217ZM94.7808 51.4232C94.2552 51.4232 93.8018 51.3072 93.4207 51.0752C93.0419 50.8408 92.7495 50.5141 92.5435 50.0951C92.3399 49.6737 92.2381 49.1836 92.2381 48.6249C92.2381 48.0662 92.3399 47.5738 92.5435 47.1476C92.7495 46.7191 93.036 46.3853 93.4029 46.1462C93.7722 45.9047 94.2031 45.784 94.6955 45.784C94.9796 45.784 95.2602 45.8314 95.5372 45.926C95.8141 46.0207 96.0663 46.1746 96.2935 46.3877C96.5208 46.5984 96.7019 46.8778 96.8369 47.2258C96.9718 47.5738 97.0393 48.0023 97.0393 48.5113V48.8664H92.8347V48.142H96.187C96.187 47.8342 96.1255 47.5596 96.0024 47.3181C95.8816 47.0766 95.7088 46.886 95.4839 46.7464C95.2613 46.6067 94.9986 46.5368 94.6955 46.5368C94.3617 46.5368 94.0729 46.6197 93.8291 46.7854C93.5876 46.9488 93.4017 47.1618 93.2715 47.4246C93.1413 47.6874 93.0762 47.9691 93.0762 48.2698V48.7528C93.0762 49.1647 93.1472 49.5139 93.2893 49.8003C93.4337 50.0844 93.6337 50.301 93.8894 50.4502C94.1451 50.597 94.4422 50.6704 94.7808 50.6704C95.0009 50.6704 95.1998 50.6396 95.3774 50.578C95.5573 50.5141 95.7123 50.4194 95.8426 50.2939C95.9728 50.1661 96.0734 50.0075 96.1444 49.8181L96.9541 50.0454C96.8688 50.32 96.7256 50.5615 96.5244 50.7698C96.3231 50.9758 96.0746 51.1367 95.7786 51.2528C95.4827 51.3664 95.1501 51.4232 94.7808 51.4232ZM101.127 53.355V45.855H101.936V46.7215H102.036C102.097 46.6268 102.183 46.5061 102.291 46.3593C102.403 46.2101 102.561 46.0776 102.767 45.9616C102.976 45.8432 103.257 45.784 103.612 45.784C104.072 45.784 104.477 45.8988 104.827 46.1285C105.177 46.3581 105.451 46.6836 105.647 47.105C105.844 47.5264 105.942 48.0236 105.942 48.5965C105.942 49.1742 105.844 49.6749 105.647 50.0986C105.451 50.52 105.178 50.8467 104.83 51.0787C104.482 51.3084 104.081 51.4232 103.627 51.4232C103.276 51.4232 102.996 51.3652 102.785 51.2492C102.574 51.1308 102.412 50.9971 102.299 50.8479C102.185 50.6964 102.097 50.5709 102.036 50.4715H101.965V53.355H101.127ZM101.951 48.5823C101.951 48.9942 102.011 49.3576 102.132 49.6725C102.252 49.985 102.429 50.23 102.661 50.4076C102.893 50.5828 103.177 50.6704 103.513 50.6704C103.863 50.6704 104.156 50.578 104.39 50.3934C104.627 50.2064 104.804 49.9554 104.923 49.6405C105.044 49.3233 105.104 48.9706 105.104 48.5823C105.104 48.1988 105.045 47.8531 104.926 47.5454C104.81 47.2352 104.634 46.9902 104.397 46.8103C104.163 46.628 103.868 46.5368 103.513 46.5368C103.172 46.5368 102.886 46.6233 102.654 46.7961C102.422 46.9665 102.246 47.2056 102.128 47.5134C102.01 47.8188 101.951 48.1751 101.951 48.5823ZM109.507 51.4232C108.982 51.4232 108.528 51.3072 108.147 51.0752C107.768 50.8408 107.476 50.5141 107.27 50.0951C107.067 49.6737 106.965 49.1836 106.965 48.6249C106.965 48.0662 107.067 47.5738 107.27 47.1476C107.476 46.7191 107.763 46.3853 108.129 46.1462C108.499 45.9047 108.93 45.784 109.422 45.784C109.706 45.784 109.987 45.8314 110.264 45.926C110.541 46.0207 110.793 46.1746 111.02 46.3877C111.247 46.5984 111.428 46.8778 111.563 47.2258C111.698 47.5738 111.766 48.0023 111.766 48.5113V48.8664H107.561V48.142H110.914C110.914 47.8342 110.852 47.5596 110.729 47.3181C110.608 47.0766 110.435 46.886 110.21 46.7464C109.988 46.6067 109.725 46.5368 109.422 46.5368C109.088 46.5368 108.799 46.6197 108.556 46.7854C108.314 46.9488 108.128 47.1618 107.998 47.4246C107.868 47.6874 107.803 47.9691 107.803 48.2698V48.7528C107.803 49.1647 107.874 49.5139 108.016 49.8003C108.16 50.0844 108.36 50.301 108.616 50.4502C108.872 50.597 109.169 50.6704 109.507 50.6704C109.727 50.6704 109.926 50.6396 110.104 50.578C110.284 50.5141 110.439 50.4194 110.569 50.2939C110.699 50.1661 110.8 50.0075 110.871 49.8181L111.681 50.0454C111.595 50.32 111.452 50.5615 111.251 50.7698C111.05 50.9758 110.801 51.1367 110.505 51.2528C110.209 51.3664 109.877 51.4232 109.507 51.4232ZM113.041 45.855H113.879V50.5283H115.938V45.855H116.776V50.5283H118.836V45.855H119.674V51.3096H113.041V45.855ZM123.492 51.4232C122.966 51.4232 122.513 51.3072 122.132 51.0752C121.753 50.8408 121.46 50.5141 121.254 50.0951C121.051 49.6737 120.949 49.1836 120.949 48.6249C120.949 48.0662 121.051 47.5738 121.254 47.1476C121.46 46.7191 121.747 46.3853 122.114 46.1462C122.483 45.9047 122.914 45.784 123.406 45.784C123.691 45.784 123.971 45.8314 124.248 45.926C124.525 46.0207 124.777 46.1746 125.004 46.3877C125.232 46.5984 125.413 46.8778 125.548 47.2258C125.683 47.5738 125.75 48.0023 125.75 48.5113V48.8664H121.546V48.142H124.898C124.898 47.8342 124.836 47.5596 124.713 47.3181C124.593 47.0766 124.42 46.886 124.195 46.7464C123.972 46.6067 123.71 46.5368 123.406 46.5368C123.073 46.5368 122.784 46.6197 122.54 46.7854C122.299 46.9488 122.113 47.1618 121.982 47.4246C121.852 47.6874 121.787 47.9691 121.787 48.2698V48.7528C121.787 49.1647 121.858 49.5139 122 49.8003C122.145 50.0844 122.345 50.301 122.6 50.4502C122.856 50.597 123.153 50.6704 123.492 50.6704C123.712 50.6704 123.911 50.6396 124.088 50.578C124.268 50.5141 124.423 50.4194 124.553 50.2939C124.684 50.1661 124.784 50.0075 124.855 49.8181L125.665 50.0454C125.58 50.32 125.437 50.5615 125.235 50.7698C125.034 50.9758 124.785 51.1367 124.49 51.2528C124.194 51.3664 123.861 51.4232 123.492 51.4232ZM130.676 48.1988V48.98H127.664V48.1988H130.676ZM127.863 45.855V51.3096H127.025V45.855H127.863ZM131.315 45.855V51.3096H130.477V45.855H131.315ZM133.683 50.0738L136.311 45.855H137.277V51.3096H136.439V47.0908L133.826 51.3096H132.845V45.855H133.683V50.0738ZM142.093 51.3096V46.6221H140.645C140.318 46.6221 140.061 46.6978 139.874 46.8493C139.687 47.0009 139.593 47.2092 139.593 47.4743C139.593 47.7348 139.677 47.9395 139.846 48.0887C140.016 48.2378 140.249 48.3124 140.545 48.3124H142.307V49.0937H140.545C140.176 49.0937 139.857 49.0286 139.59 48.8983C139.322 48.7681 139.116 48.5823 138.972 48.3408C138.828 48.097 138.755 47.8081 138.755 47.4743C138.755 47.1382 138.831 46.8493 138.983 46.6079C139.134 46.3664 139.351 46.1805 139.633 46.0503C139.917 45.9201 140.254 45.855 140.645 45.855H142.889V51.3096H142.093ZM138.457 51.3096L140.005 48.5965H140.914L139.366 51.3096H138.457ZM146.658 52.8721V50.5283H147.112C147.223 50.4123 147.319 50.2868 147.4 50.1519C147.48 50.017 147.55 49.8572 147.609 49.6725C147.671 49.4855 147.723 49.2582 147.765 48.9907C147.808 48.7208 147.846 48.3953 147.879 48.0141L148.064 45.855H151.53V50.5283H152.368V52.8721H151.53V51.3096H147.496V52.8721H146.658ZM148.064 50.5283H150.692V46.6363H148.845L148.703 48.0141C148.644 48.5847 148.57 49.083 148.483 49.5091C148.395 49.9353 148.256 50.275 148.064 50.5283ZM152.997 51.3096V50.5283H153.196C153.359 50.5283 153.496 50.4964 153.604 50.4324C153.713 50.3662 153.801 50.2513 153.867 50.088C153.936 49.9223 153.988 49.6926 154.023 49.3991C154.061 49.1031 154.089 48.7267 154.105 48.2698L154.205 45.855H157.841V51.3096H157.003V46.6363H155L154.915 48.5823C154.896 49.0297 154.856 49.4239 154.794 49.7648C154.735 50.1034 154.644 50.3875 154.521 50.6171C154.4 50.8467 154.239 51.0196 154.038 51.1356C153.836 51.2516 153.584 51.3096 153.281 51.3096H152.997ZM162.66 51.3096V46.6221H161.211C160.884 46.6221 160.627 46.6978 160.44 46.8493C160.253 47.0009 160.16 47.2092 160.16 47.4743C160.16 47.7348 160.244 47.9395 160.412 48.0887C160.582 48.2378 160.816 48.3124 161.112 48.3124H162.873V49.0937H161.112C160.742 49.0937 160.424 49.0286 160.156 48.8983C159.889 48.7681 159.683 48.5823 159.538 48.3408C159.394 48.097 159.322 47.8081 159.322 47.4743C159.322 47.1382 159.398 46.8493 159.549 46.6079C159.701 46.3664 159.917 46.1805 160.199 46.0503C160.483 45.9201 160.82 45.855 161.211 45.855H163.455V51.3096H162.66ZM159.023 51.3096L160.572 48.5965H161.481L159.933 51.3096H159.023ZM170.349 44.0368V51.3096H169.468V44.9601H169.426L167.65 46.1391V45.2442L169.468 44.0368H170.349ZM178.421 46.3096H177.54C177.488 46.0563 177.397 45.8337 177.267 45.642C177.139 45.4502 176.982 45.2892 176.798 45.159C176.616 45.0264 176.413 44.927 176.191 44.8607C175.968 44.7944 175.736 44.7613 175.495 44.7613C175.054 44.7613 174.655 44.8725 174.298 45.0951C173.943 45.3176 173.66 45.6455 173.449 46.0787C173.241 46.512 173.137 47.0435 173.137 47.6732C173.137 48.3029 173.241 48.8344 173.449 49.2677C173.66 49.7009 173.943 50.0288 174.298 50.2513C174.655 50.4739 175.054 50.5851 175.495 50.5851C175.736 50.5851 175.968 50.552 176.191 50.4857C176.413 50.4194 176.616 50.3212 176.798 50.191C176.982 50.0584 177.139 49.8962 177.267 49.7045C177.397 49.5103 177.488 49.2878 177.54 49.0368H178.421C178.354 49.4085 178.234 49.7412 178.058 50.0347C177.883 50.3283 177.665 50.578 177.405 50.784C177.145 50.9876 176.852 51.1427 176.528 51.2492C176.206 51.3557 175.861 51.409 175.495 51.409C174.874 51.409 174.323 51.2575 173.84 50.9545C173.357 50.6514 172.977 50.2206 172.7 49.6618C172.423 49.1031 172.284 48.4403 172.284 47.6732C172.284 46.9062 172.423 46.2433 172.7 45.6846C172.977 45.1259 173.357 44.695 173.84 44.392C174.323 44.0889 174.874 43.9374 175.495 43.9374C175.861 43.9374 176.206 43.9907 176.528 44.0972C176.852 44.2037 177.145 44.36 177.405 44.566C177.665 44.7696 177.883 45.0181 178.058 45.3117C178.234 45.6029 178.354 45.9355 178.421 46.3096Z" fill="#EFEFEF"/>
<path d="M24.1916 18.882H212.924" stroke="#FFDD01" stroke-width="3"/>
</svg>
